<?xml version="1.0" encoding="utf-8"?>
<svg fill="#000000" width="800px" height="800px" viewBox="0 0 512 512" xmlns="http://www.w3.org/2000/svg">
  <!-- Blood drop / bleeding icon -->
  <path style="fill:#EF4444;" d="M256,16C256,16,128,192,128,320c0,70.7,57.3,128,128,128s128-57.3,128-128C384,192,256,16,256,16z"/>
  <path style="fill:#DC2626;" d="M256,416c-53,0-96-43-96-96c0-85.3,72-208,96-248c24,40,96,162.7,96,248C352,373,309,416,256,416z"/>
  <path style="fill:#231F20;" d="M256,464c-79.4,0-144-64.6-144-144c0-68.3,51.2-152.8,96.4-220.8C230.6,65.6,252.4,30.4,256,24.8
    c3.6,5.6,25.4,40.8,47.6,74.4C348.8,167.2,400,251.7,400,320C400,399.4,335.4,464,256,464z M256,59.2
    C232.8,95.2,144,233.6,144,320c0,61.8,50.2,112,112,112s112-50.2,112-112C368,233.6,279.2,95.2,256,59.2z"/>
  <ellipse style="fill:#FFFFFF;opacity:0.3;" cx="220" cy="288" rx="24" ry="40" transform="rotate(-20 220 288)"/>
</svg>
