<?xml version="1.0" encoding="utf-8"?>
<svg fill="#000000" width="800px" height="800px" viewBox="0 0 512 512" xmlns="http://www.w3.org/2000/svg">
  <!-- Joint dislocation icon -->
  <circle style="fill:#A78BFA;" cx="192" cy="256" r="64"/>
  <circle style="fill:#7C3AED;" cx="320" cy="256" r="48"/>
  <path style="fill:#231F20;" d="M192,336c-44.2,0-80-35.8-80-80s35.8-80,80-80s80,35.8,80,80S236.2,336,192,336z
    M192,208c-26.5,0-48,21.5-48,48s21.5,48,48,48s48-21.5,48-48S218.5,208,192,208z"/>
  <path style="fill:#231F20;" d="M320,320c-35.3,0-64-28.7-64-64s28.7-64,64-64s64,28.7,64,64S355.3,320,320,320z
    M320,224c-17.7,0-32,14.3-32,32s14.3,32,32,32s32-14.3,32-32S337.7,224,320,224z"/>
  <path style="fill:none;stroke:#EF4444;stroke-width:10;stroke-linecap:round;stroke-dasharray:12,8;" d="M256,220 L280,220"/>
  <path style="fill:none;stroke:#EF4444;stroke-width:10;stroke-linecap:round;stroke-dasharray:12,8;" d="M256,292 L280,292"/>
  <path style="fill:#EF4444;" d="M344,168l16-40 M360,168l-16-40 M376,168l16-40" stroke="#EF4444" stroke-width="8" stroke-linecap="round"/>
</svg>
