<?xml version="1.0" encoding="utf-8"?>
<svg fill="#000000" width="800px" height="800px" viewBox="0 0 512 512" xmlns="http://www.w3.org/2000/svg">
  <!-- Dog bite icon -->
  <path style="fill:#D97706;" d="M416,224c0,0-16-64-80-80c-32-8-48,8-80,8c-24,0-48-16-80-16c-48,0-80,48-80,96
    c0,64,32,112,80,128c16,8,48,16,80,16c48,0,80-16,112-48c32-32,48-64,48-104z"/>
  <path style="fill:#231F20;" d="M256,392c-36,0-70.4-8-88-17.6C112,356.8,80,304,80,232c0-56,38.4-112,96-112c28,0,52,14.4,76,14.4
    c24,0,38.4-14.4,68-6.4C392,148.8,432,220.8,432,224c0,0,0,0.8,0,0.8c0,43.2-17.6,78.4-52,112C348.8,368,312,392,256,392z
    M176,152c-40,0-64,44-64,80c0,59.2,26.4,104,76,118.4C202.4,358.4,230.4,360,256,360c44.8,0,76-20,100-44
    c28-28,40.8-56.8,43.2-92c-8-20.8-40-60.8-86.4-72c-20-4.8-28,4.8-56.8,4.8C228.8,156.8,200,152,176,152z"/>
  <circle style="fill:#231F20;" cx="208" cy="232" r="16"/>
  <circle style="fill:#231F20;" cx="304" cy="232" r="16"/>
  <ellipse style="fill:#231F20;" cx="256" cy="288" rx="24" ry="16"/>
  <path style="fill:none;stroke:#231F20;stroke-width:8;stroke-linecap:round;" d="M232,312 Q256,336 280,312"/>
  <!-- Teeth marks -->
  <path style="fill:#EF4444;" d="M160,320l-8,24l16,0l-8-24z M128,288l-8,24l16,0l-8-24z M176,344l-8,24l16,0l-8-24z"/>
</svg>
