<?xml version="1.0" encoding="utf-8"?>
<svg fill="#000000" width="800px" height="800px" viewBox="0 0 512 512" xmlns="http://www.w3.org/2000/svg">
  <!-- Electric shock icon -->
  <polygon style="fill:#FBBF24;" points="288,32 176,224 240,224 192,416 384,192 304,192 352,32"/>
  <path style="fill:#231F20;" d="M192,432L192,432l56-208h-80L288,16l72,0l-56,176h88L192,432z M200,208h64l-40,152l128-152h-64
    l48-160h-24L200,208z"/>
  <!-- Spark lines -->
  <line x1="128" y1="128" x2="96" y2="96" style="stroke:#F59E0B;stroke-width:12;stroke-linecap:round"/>
  <line x1="112" y1="208" x2="64" y2="208" style="stroke:#F59E0B;stroke-width:12;stroke-linecap:round"/>
  <line x1="400" y1="288" x2="448" y2="288" style="stroke:#F59E0B;stroke-width:12;stroke-linecap:round"/>
  <line x1="384" y1="368" x2="416" y2="400" style="stroke:#F59E0B;stroke-width:12;stroke-linecap:round"/>
</svg>
