<?xml version="1.0" encoding="utf-8"?>
<svg fill="#000000" width="800px" height="800px" viewBox="0 0 512 512" xmlns="http://www.w3.org/2000/svg">
  <!-- Heart with crack - shock icon -->
  <path style="fill:#F43F5E;" d="M256,448l-16-16C108.8,310.4,48,256,48,192C48,131.2,96,80,160,80c36.8,0,72,17.6,96,44.8
    C280,97.6,315.2,80,352,80c64,0,112,51.2,112,112c0,64-60.8,118.4-192,240L256,448z"/>
  <path style="fill:#231F20;" d="M256,464l-20-19.2C98.4,318.4,32,259.2,32,184C32,120,84,64,160,64c42.4,0,80.8,20,96,50.4
    C272,84,310.4,64,352,64c76,0,128,56,128,120c0,75.2-66.4,134.4-204,260.8L256,464z M160,96c-57.6,0-96,38.4-96,88
    c0,56,56,108.8,192,228.8C392,292.8,448,240,448,184c0-49.6-38.4-88-96-88c-35.2,0-68.8,20.8-82.4,50.4l-13.6,28.8l-13.6-28.8
    C228.8,116.8,195.2,96,160,96z"/>
  <polygon style="fill:#FFFFFF;" points="280,160 248,224 280,224 232,304 272,240 240,240"/>
  <line x1="256" y1="320" x2="256" y2="352" style="stroke:#231F20;stroke-width:12;stroke-linecap:round"/>
</svg>
