<?xml version="1.0" encoding="utf-8"?>
<svg fill="#000000" width="800px" height="800px" viewBox="0 0 512 512" xmlns="http://www.w3.org/2000/svg">
  <!-- Ankle/foot sprain icon -->
  <path style="fill:#F59E0B;" d="M320,384c0,0-32,64-128,64c-48,0-80-32-80-80c0-48,32-112,64-144l48-48l32,32
    c0,0,32,48,32,80C288,320,320,352,320,384z"/>
  <path style="fill:#231F20;" d="M192,464c-57.6,0-96-38.4-96-96c0-54.4,35.2-121.6,67.2-155.2l52.8-52.8l44.8,44.8
    c4,6.4,36,54.4,36,89.6c0,19.2,12,44.8,36.8,68.8C326.4,416,272,464,192,464z M216,188.8L176,228.8
    C148,260.8,112,320,112,368c0,44.8,28.8,64,64,64c68.8,0,108.8-36.8,119.2-52.8c-16-20.8-23.2-40-23.2-60.8
    c0-28.8-24-68.8-28.8-76.8L216,188.8z"/>
  <path style="fill:#231F20;" d="M208,336c-4.8,0-8.8-3.2-10.4-8c-3.2-12.8-16-36.8-16-37.6c-3.2-4.8-1.6-11.2,3.2-14.4
    c4.8-3.2,11.2-1.6,14.4,3.2c0.8,0.8,14.4,27.2,19.2,44.8c1.6,5.6-1.6,11.2-7.2,12.8C210.4,336,209.6,336,208,336z"/>
  <circle style="fill:#F59E0B;stroke:#231F20;stroke-width:12;" cx="280" cy="208" r="20"/>
  <path style="fill:none;stroke:#EF4444;stroke-width:8;stroke-linecap:round;" d="M344,280l24-24 M376,312l24-24 M344,336l24-24"/>
</svg>
